<?xml version="1.0" encoding="UTF-8"?>
<svg id="Layer_1" xmlns="http://www.w3.org/2000/svg" viewBox="0 0 567.57 99.71"><defs></defs>

<path class="cls-1" d="M36.84,26.96c4.18-2.49,8.68-3.74,13.48-3.74v27.9h-7.34c-5.7,0-9.92,1.11-12.68,3.34-2.76,2.23-4.14,6.1-4.14,11.61v32.7H0V23.89h26.16v13.22c2.94-4.27,6.5-7.65,10.68-10.15Z"/><path class="cls-1" d="M130.81,66.61h-49.52c.27,4.09,1.4,7.14,3.4,9.14s4.56,3,7.68,3c4.36,0,7.48-1.96,9.34-5.87h27.9c-1.16,5.16-3.4,9.77-6.74,13.82-3.34,4.05-7.54,7.23-12.61,9.54-5.07,2.31-10.68,3.47-16.82,3.47-7.39,0-13.95-1.56-19.69-4.67-5.74-3.11-10.23-7.56-13.48-13.35-3.25-5.78-4.87-12.59-4.87-20.42s1.6-14.62,4.81-20.36,7.68-10.17,13.42-13.28c5.74-3.11,12.35-4.67,19.82-4.67s13.93,1.51,19.62,4.54c5.69,3.03,10.15,7.36,13.35,13.02,3.2,5.65,4.81,12.3,4.81,19.96,0,2.05-.13,4.09-.4,6.14ZM104.52,53.93c0-3.2-1.07-5.72-3.2-7.54-2.14-1.82-4.81-2.74-8.01-2.74s-5.83.87-7.88,2.6c-2.05,1.74-3.38,4.29-4,7.68h23.09Z"/><path class="cls-1" d="M155.71,96.31c-5.3-2.27-9.48-5.38-12.55-9.34-3.07-3.96-4.78-8.43-5.14-13.42h25.36c.35,2.4,1.47,4.27,3.34,5.61,1.87,1.33,4.18,2,6.94,2,2.14,0,3.83-.44,5.07-1.33,1.25-.89,1.87-2.05,1.87-3.47,0-1.87-1.02-3.25-3.07-4.14-2.05-.89-5.43-1.87-10.15-2.94-5.34-1.07-9.79-2.27-13.35-3.6-3.56-1.33-6.65-3.51-9.28-6.54-2.63-3.02-3.94-7.12-3.94-12.28,0-4.45,1.2-8.48,3.6-12.08,2.4-3.6,5.94-6.47,10.61-8.61s10.3-3.2,16.89-3.2c9.79,0,17.49,2.4,23.09,7.21,5.61,4.81,8.85,11.12,9.74,18.96h-23.63c-.45-2.4-1.49-4.25-3.14-5.54-1.65-1.29-3.85-1.94-6.61-1.94-2.14,0-3.76.4-4.87,1.2-1.11.8-1.67,1.91-1.67,3.34,0,1.78,1.02,3.14,3.07,4.07,2.05.93,5.34,1.89,9.88,2.87,5.43,1.16,9.94,2.45,13.55,3.87,3.6,1.42,6.76,3.72,9.48,6.87,2.71,3.16,4.07,7.45,4.07,12.88,0,4.36-1.27,8.28-3.8,11.75s-6.14,6.21-10.81,8.21c-4.67,2-10.17,3-16.49,3-6.76,0-12.79-1.13-18.09-3.4Z"/><path class="cls-1" d="M243.88,23.89v74.89h-26.16V23.89h26.16Z"/><path class="cls-1" d="M258.76,40.98c2.8-5.78,6.65-10.23,11.55-13.35,4.89-3.11,10.32-4.67,16.29-4.67,4.81,0,9.1,1,12.88,3,3.78,2,6.74,4.74,8.88,8.21V0h26.3v98.78h-26.3v-10.41c-2.05,3.47-4.94,6.23-8.68,8.28-3.74,2.05-8.14,3.07-13.21,3.07-5.96,0-11.37-1.56-16.22-4.67-4.85-3.11-8.68-7.59-11.48-13.42-2.8-5.83-4.2-12.61-4.2-20.36s1.4-14.5,4.2-20.29ZM304.54,49.92c-2.62-2.76-5.85-4.14-9.68-4.14s-7.17,1.36-9.75,4.07c-2.58,2.72-3.87,6.52-3.87,11.41s1.29,8.61,3.87,11.41c2.58,2.8,5.83,4.2,9.75,4.2s7.05-1.38,9.68-4.14c2.62-2.76,3.94-6.58,3.94-11.48s-1.31-8.59-3.94-11.35Z"/><path class="cls-1" d="M420.74,66.61h-49.52c.27,4.09,1.4,7.14,3.4,9.14,2,2,4.56,3,7.67,3,4.36,0,7.48-1.96,9.34-5.87h27.9c-1.16,5.16-3.4,9.77-6.74,13.82-3.34,4.05-7.54,7.23-12.61,9.54-5.07,2.31-10.68,3.47-16.82,3.47-7.39,0-13.95-1.56-19.69-4.67-5.74-3.11-10.23-7.56-13.48-13.35-3.25-5.78-4.87-12.59-4.87-20.42s1.6-14.62,4.8-20.36c3.2-5.74,7.68-10.17,13.42-13.28,5.74-3.11,12.35-4.67,19.82-4.67s13.93,1.51,19.62,4.54c5.69,3.03,10.14,7.36,13.35,13.02,3.2,5.65,4.81,12.3,4.81,19.96,0,2.05-.13,4.09-.4,6.14ZM394.45,53.93c0-3.2-1.07-5.72-3.2-7.54-2.14-1.82-4.8-2.74-8.01-2.74s-5.83.87-7.88,2.6c-2.05,1.74-3.38,4.29-4,7.68h23.09Z"/><path class="cls-1" d="M501.37,31.84c5.07,5.74,7.61,13.5,7.61,23.29v43.65h-26.16v-40.18c0-4.27-1.11-7.63-3.34-10.08-2.22-2.45-5.21-3.67-8.94-3.67s-6.99,1.22-9.21,3.67c-2.23,2.45-3.34,5.81-3.34,10.08v40.18h-26.16V23.89h26.16v10.68c2.31-3.38,5.43-6.12,9.34-8.21,3.92-2.09,8.41-3.14,13.48-3.14,8.63,0,15.48,2.87,20.56,8.61Z"/><path class="cls-1" d="M567.57,76.49v22.29h-11.35c-19.13,0-28.7-9.48-28.7-28.43v-24.69h-9.21v-21.76h9.21V5.74h26.3v18.15h13.62v21.76h-13.62v25.1c0,2.05.47,3.52,1.4,4.4.93.89,2.51,1.33,4.74,1.33h7.61Z"/></svg>
